<svg width="183" height="29" viewBox="0 0 183 29" fill="none" xmlns="http://www.w3.org/2000/svg">
<g clip-path="url(#clip0_1_1413)">
<mask id="mask0_1_1413" style="mask-type:luminance" maskUnits="userSpaceOnUse" x="46" y="6" width="19" height="17">
<path d="M61.2655 6.2373C61.1483 6.2373 60.9372 6.32918 60.8673 6.467L55.4355 16.3878H55.3887L49.9566 6.467C49.887 6.32918 49.6753 6.2373 49.5586 6.2373H49.1842C48.9968 6.2373 48.7862 6.39797 48.7629 6.60483L46.117 22.0374C46.0697 22.3359 46.2808 22.5425 46.5618 22.5425H49.3247C49.5586 22.5425 49.7457 22.359 49.7693 22.175L50.7994 15.0791H50.8463L54.8033 22.5197C54.8737 22.6573 55.0605 22.7728 55.2013 22.7728H55.6226C55.7396 22.7728 55.9505 22.6573 56.0211 22.5197L59.9544 15.0791H60.0017L61.0549 22.175C61.0782 22.359 61.2891 22.5425 61.4995 22.5425H64.2626C64.5436 22.5425 64.7543 22.3359 64.7074 22.0374L62.0618 6.60483C62.0382 6.39797 61.8278 6.2373 61.64 6.2373H61.2655Z" fill="white"/>
</mask>
<g mask="url(#mask0_1_1413)">
<path d="M61.2655 6.2373C61.1483 6.2373 60.9372 6.32918 60.8673 6.467L55.4355 16.3878H55.3887L49.9566 6.467C49.887 6.32918 49.6753 6.2373 49.5586 6.2373H49.1842C48.9968 6.2373 48.7862 6.39797 48.7629 6.60483L46.117 22.0374C46.0697 22.3359 46.2808 22.5425 46.5618 22.5425H49.3247C49.5586 22.5425 49.7457 22.359 49.7693 22.175L50.7994 15.0791H50.8463L54.8033 22.5197C54.8737 22.6573 55.0605 22.7728 55.2013 22.7728H55.6226C55.7396 22.7728 55.9505 22.6573 56.0211 22.5197L59.9544 15.0791H60.0017L61.0549 22.175C61.0782 22.359 61.2891 22.5425 61.4995 22.5425H64.2626C64.5436 22.5425 64.7543 22.3359 64.7074 22.0374L62.0618 6.60483C62.0382 6.39797 61.8278 6.2373 61.64 6.2373H61.2655Z" fill="url(#paint0_linear_1_1413)"/>
</g>
<mask id="mask1_1_1413" style="mask-type:luminance" maskUnits="userSpaceOnUse" x="65" y="6" width="17" height="17">
<path d="M73.3226 6.23731C73.1583 6.23731 72.9948 6.35203 72.9244 6.4896L65.5958 21.9456C65.4553 22.2441 65.6421 22.5425 65.9941 22.5425H68.5688C69.0377 22.5425 69.2954 22.2674 69.4121 21.9915L70.2549 20.1547H76.6235L77.4663 21.9687C77.6772 22.405 77.8648 22.5425 78.2863 22.5425H80.8849C81.2363 22.5425 81.4234 22.2441 81.2831 21.9456L73.9543 6.4896C73.8839 6.35203 73.7201 6.23731 73.5563 6.23731H73.3226ZM73.416 13.2415H73.4396L75.2189 17.031H71.6606L73.416 13.2415Z" fill="white"/>
</mask>
<g mask="url(#mask1_1_1413)">
<path d="M73.3226 6.23731C73.1583 6.23731 72.9948 6.35203 72.9244 6.4896L65.5958 21.9456C65.4553 22.2441 65.6421 22.5425 65.9941 22.5425H68.5688C69.0377 22.5425 69.2954 22.2674 69.4121 21.9915L70.2549 20.1547H76.6235L77.4663 21.9687C77.6772 22.405 77.8648 22.5425 78.2863 22.5425H80.8849C81.2363 22.5425 81.4234 22.2441 81.2831 21.9456L73.9543 6.4896C73.8839 6.35203 73.7201 6.23731 73.5563 6.23731H73.3226ZM73.416 13.2415H73.4396L75.2189 17.031H71.6606L73.416 13.2415Z" fill="url(#paint1_linear_1_1413)"/>
</g>
<mask id="mask2_1_1413" style="mask-type:luminance" maskUnits="userSpaceOnUse" x="79" y="6" width="17" height="17">
<path d="M91.9578 6.467C91.7707 6.467 91.6064 6.60482 91.5598 6.71929L87.6972 15.102H87.5564L83.6933 6.71929C83.6462 6.60482 83.4824 6.467 83.2953 6.467H80.181C79.8299 6.467 79.6428 6.76523 79.7833 7.06372L87.0883 22.5197C87.1579 22.6573 87.2989 22.7728 87.4863 22.7728H87.7202C87.9076 22.7728 88.0481 22.6573 88.1182 22.5197L95.4703 7.06372C95.6106 6.76523 95.4235 6.467 95.0721 6.467H91.9578Z" fill="white"/>
</mask>
<g mask="url(#mask2_1_1413)">
<path d="M91.9578 6.467C91.7707 6.467 91.6064 6.60482 91.5598 6.71929L87.6972 15.102H87.5564L83.6933 6.71929C83.6462 6.60482 83.4824 6.467 83.2953 6.467H80.181C79.8299 6.467 79.6428 6.76523 79.7833 7.06372L87.0883 22.5197C87.1579 22.6573 87.2989 22.7728 87.4863 22.7728H87.7202C87.9076 22.7728 88.0481 22.6573 88.1182 22.5197L95.4703 7.06372C95.6106 6.76523 95.4235 6.467 95.0721 6.467H91.9578Z" fill="url(#paint2_linear_1_1413)"/>
</g>
<mask id="mask3_1_1413" style="mask-type:luminance" maskUnits="userSpaceOnUse" x="97" y="6" width="11" height="17">
<path d="M97.8347 6.46701C97.5767 6.46701 97.3896 6.67361 97.3896 6.90306V22.1065C97.3896 22.3359 97.5767 22.5425 97.8347 22.5425H107.528C107.785 22.5425 107.973 22.3359 107.973 22.1065V19.6031C107.973 19.3732 107.785 19.1668 107.528 19.1668H101.042V16.0665H106.381C106.615 16.0665 106.825 15.8825 106.825 15.6304V13.1268C106.825 12.8974 106.615 12.6905 106.381 12.6905H101.042V9.84299H107.528C107.785 9.84299 107.973 9.63587 107.973 9.40617V6.90306C107.973 6.67361 107.785 6.46701 107.528 6.46701H97.8347Z" fill="white"/>
</mask>
<g mask="url(#mask3_1_1413)">
<path d="M97.8347 6.46701C97.5767 6.46701 97.3896 6.67361 97.3896 6.90306V22.1065C97.3896 22.3359 97.5767 22.5425 97.8347 22.5425H107.528C107.785 22.5425 107.973 22.3359 107.973 22.1065V19.6031C107.973 19.3732 107.785 19.1668 107.528 19.1668H101.042V16.0665H106.381C106.615 16.0665 106.825 15.8825 106.825 15.6304V13.1268C106.825 12.8974 106.615 12.6905 106.381 12.6905H101.042V9.84299H107.528C107.785 9.84299 107.973 9.63587 107.973 9.40617V6.90306C107.973 6.67361 107.785 6.46701 107.528 6.46701H97.8347Z" fill="url(#paint3_linear_1_1413)"/>
</g>
<mask id="mask4_1_1413" style="mask-type:luminance" maskUnits="userSpaceOnUse" x="111" y="6" width="15" height="17">
<path d="M111.53 6.2373C111.297 6.2373 111.086 6.42107 111.086 6.65051L111.11 22.1065C111.11 22.3359 111.32 22.5425 111.555 22.5425H114.341C114.598 22.5425 114.786 22.3359 114.786 22.1065V13.54H114.809L124.057 22.6573C124.105 22.7035 124.291 22.7728 124.361 22.7728H124.736C124.971 22.7728 125.18 22.5882 125.18 22.359V6.90305C125.18 6.6736 124.971 6.467 124.736 6.467H121.927C121.669 6.467 121.482 6.6736 121.482 6.90305V15.0558H121.458L112.116 6.2373H111.53Z" fill="white"/>
</mask>
<g mask="url(#mask4_1_1413)">
<path d="M111.53 6.2373C111.297 6.2373 111.086 6.42107 111.086 6.65051L111.11 22.1065C111.11 22.3359 111.32 22.5425 111.555 22.5425H114.341C114.598 22.5425 114.786 22.3359 114.786 22.1065V13.54H114.809L124.057 22.6573C124.105 22.7035 124.291 22.7728 124.361 22.7728H124.736C124.971 22.7728 125.18 22.5882 125.18 22.359V6.90305C125.18 6.6736 124.971 6.467 124.736 6.467H121.927C121.669 6.467 121.482 6.6736 121.482 6.90305V15.0558H121.458L112.116 6.2373H111.53Z" fill="url(#paint4_linear_1_1413)"/>
</g>
<mask id="mask5_1_1413" style="mask-type:luminance" maskUnits="userSpaceOnUse" x="129" y="6" width="12" height="17">
<path d="M129.652 6.46701C129.395 6.46701 129.207 6.67361 129.207 6.90306V22.1065C129.207 22.3359 129.395 22.5425 129.652 22.5425H135.458C138.245 22.5425 140.563 20.6826 140.563 18.1104C140.563 15.998 138.666 14.872 137.426 14.367C138.526 13.7928 140.141 12.5068 140.141 10.7382C140.141 8.3272 137.87 6.46701 135.107 6.46701H129.652ZM132.86 9.77394H134.686C135.576 9.77394 136.325 10.4169 136.325 11.3359C136.325 12.2537 135.576 12.989 134.686 12.989H132.86V9.77394ZM132.86 15.9746H134.756C135.669 15.9746 136.675 16.6637 136.675 17.582C136.675 18.5234 135.903 19.2587 134.99 19.2587H132.86V15.9746Z" fill="white"/>
</mask>
<g mask="url(#mask5_1_1413)">
<path d="M129.652 6.46701C129.395 6.46701 129.207 6.67361 129.207 6.90306V22.1065C129.207 22.3359 129.395 22.5425 129.652 22.5425H135.458C138.245 22.5425 140.563 20.6826 140.563 18.1104C140.563 15.998 138.666 14.872 137.426 14.367C138.526 13.7928 140.141 12.5068 140.141 10.7382C140.141 8.3272 137.87 6.46701 135.107 6.46701H129.652ZM132.86 9.77394H134.686C135.576 9.77394 136.325 10.4169 136.325 11.3359C136.325 12.2537 135.576 12.989 134.686 12.989H132.86V9.77394ZM132.86 15.9746H134.756C135.669 15.9746 136.675 16.6637 136.675 17.582C136.675 18.5234 135.903 19.2587 134.99 19.2587H132.86V15.9746Z" fill="url(#paint5_linear_1_1413)"/>
</g>
<mask id="mask6_1_1413" style="mask-type:luminance" maskUnits="userSpaceOnUse" x="143" y="6" width="11" height="17">
<path d="M143.98 6.46701C143.723 6.46701 143.535 6.67361 143.535 6.90306V22.1065C143.535 22.3359 143.723 22.5425 143.98 22.5425H152.784C153.041 22.5425 153.229 22.3359 153.229 22.1065V19.6031C153.229 19.3732 153.041 19.1668 152.784 19.1668H147.211V6.90306C147.211 6.67361 147.001 6.46701 146.767 6.46701H143.98Z" fill="white"/>
</mask>
<g mask="url(#mask6_1_1413)">
<path d="M143.98 6.46701C143.723 6.46701 143.535 6.67361 143.535 6.90306V22.1065C143.535 22.3359 143.723 22.5425 143.98 22.5425H152.784C153.041 22.5425 153.229 22.3359 153.229 22.1065V19.6031C153.229 19.3732 153.041 19.1668 152.784 19.1668H147.211V6.90306C147.211 6.67361 147.001 6.46701 146.767 6.46701H143.98Z" fill="url(#paint6_linear_1_1413)"/>
</g>
<mask id="mask7_1_1413" style="mask-type:luminance" maskUnits="userSpaceOnUse" x="155" y="6" width="14" height="17">
<path d="M165.099 6.467C164.842 6.467 164.654 6.6736 164.654 6.90305V16.2046C164.654 17.812 163.414 19.0978 161.727 19.0978C160.065 19.0978 158.848 17.812 158.848 16.2046V6.90305C158.848 6.6736 158.661 6.467 158.403 6.467H155.523C155.289 6.467 155.078 6.6736 155.078 6.90305V16.3878C155.078 19.8788 158.052 22.7728 161.727 22.7728C165.427 22.7728 168.424 19.8788 168.424 16.3878V6.90305C168.424 6.6736 168.214 6.467 167.98 6.467H165.099Z" fill="white"/>
</mask>
<g mask="url(#mask7_1_1413)">
<path d="M165.099 6.467C164.842 6.467 164.654 6.6736 164.654 6.90305V16.2046C164.654 17.812 163.414 19.0978 161.727 19.0978C160.065 19.0978 158.848 17.812 158.848 16.2046V6.90305C158.848 6.6736 158.661 6.467 158.403 6.467H155.523C155.289 6.467 155.078 6.6736 155.078 6.90305V16.3878C155.078 19.8788 158.052 22.7728 161.727 22.7728C165.427 22.7728 168.424 19.8788 168.424 16.3878V6.90305C168.424 6.6736 168.214 6.467 167.98 6.467H165.099Z" fill="url(#paint7_linear_1_1413)"/>
</g>
<mask id="mask8_1_1413" style="mask-type:luminance" maskUnits="userSpaceOnUse" x="172" y="6" width="11" height="17">
<path d="M172.637 6.46701C172.38 6.46701 172.192 6.67361 172.192 6.90306V22.1065C172.192 22.3359 172.38 22.5425 172.637 22.5425H182.331C182.588 22.5425 182.775 22.3359 182.775 22.1065V19.6031C182.775 19.3732 182.588 19.1668 182.331 19.1668H175.845V16.0665H181.183C181.418 16.0665 181.628 15.8825 181.628 15.6304V13.1268C181.628 12.8974 181.418 12.6905 181.183 12.6905H175.845V9.84299H182.331C182.588 9.84299 182.775 9.63587 182.775 9.40617V6.90306C182.775 6.67361 182.588 6.46701 182.331 6.46701H172.637Z" fill="white"/>
</mask>
<g mask="url(#mask8_1_1413)">
<path d="M172.637 6.46701C172.38 6.46701 172.192 6.67361 172.192 6.90306V22.1065C172.192 22.3359 172.38 22.5425 172.637 22.5425H182.331C182.588 22.5425 182.775 22.3359 182.775 22.1065V19.6031C182.775 19.3732 182.588 19.1668 182.331 19.1668H175.845V16.0665H181.183C181.418 16.0665 181.628 15.8825 181.628 15.6304V13.1268C181.628 12.8974 181.418 12.6905 181.183 12.6905H175.845V9.84299H182.331C182.588 9.84299 182.775 9.63587 182.775 9.40617V6.90306C182.775 6.67361 182.588 6.46701 182.331 6.46701H172.637Z" fill="url(#paint8_linear_1_1413)"/>
</g>
<mask id="mask9_1_1413" style="mask-type:luminance" maskUnits="userSpaceOnUse" x="0" y="-1" width="39" height="31">
<path d="M19.2982 3.70726C16.0136 1.25163 11.6504 -0.116314 6.72418 -0.116314C6.64437 -0.116314 6.56404 -0.116312 6.48424 -0.115028L5.47397 -0.105787L4.84808 0.672371C-0.082635 6.80194 -1.26979 13.9722 1.67153 19.8536C4.04818 24.606 8.77847 27.7898 14.7168 28.7904C14.0703 27.8865 13.4852 26.9551 12.9731 26.0071C12.5631 25.2476 12.2005 24.4818 11.8838 23.7111C8.9912 22.5338 6.73805 20.5869 5.45932 18.0309C3.37153 13.8565 4.15965 8.68627 7.54579 4.03808C9.8327 4.12457 11.9388 4.57499 13.7809 5.33981C14.2257 5.5246 14.6543 5.72787 15.0669 5.94884C15.4845 6.17239 15.8865 6.4121 16.2687 6.67208C15.6701 7.44434 15.1449 8.27409 14.7022 9.15979C12.3247 13.9127 12.6458 19.5082 15.4589 24.7156C16.1261 25.9514 16.9331 27.1656 17.8785 28.3403L18.5046 29.1184L19.3032 29.1264L20.0919 29.1184L20.7177 28.3403C21.6631 27.1656 22.4701 25.9514 23.1373 24.7156C25.9504 19.5082 26.2715 13.9127 23.8946 9.15979C23.451 8.27409 22.9256 7.44434 22.3272 6.67208C22.7095 6.4121 23.1114 6.17239 23.529 5.94884C23.9419 5.72787 24.3705 5.5246 24.8153 5.33981C26.6574 4.57499 28.7635 4.12457 31.0504 4.03808C34.4366 8.68627 35.2247 13.8565 33.1369 18.0306C31.8579 20.5866 29.6048 22.5338 26.7124 23.7108C26.396 24.4818 26.0331 25.2476 25.6231 26.0068C25.111 26.9551 24.5262 27.8857 23.8794 28.7904C29.8177 27.7895 34.5472 24.606 36.9247 19.8536C39.8663 13.9722 38.6786 6.80194 33.7484 0.672371L33.122 -0.105787L32.1117 -0.115028C32.0322 -0.116312 31.9518 -0.116314 31.872 -0.116314C26.9452 -0.116314 22.5829 1.25163 19.2982 3.70726ZM18.49 10.9823C18.726 10.5098 18.9973 10.0591 19.2982 9.62946C19.5984 10.0591 19.87 10.5098 20.1062 10.9823C21.8983 14.5659 21.5694 18.8832 19.2982 22.9747C17.0268 18.8837 16.6976 14.5659 18.49 10.9823Z" fill="white"/>
</mask>
<g mask="url(#mask9_1_1413)">
<path d="M19.2982 3.70726C16.0136 1.25163 11.6504 -0.116314 6.72418 -0.116314C6.64437 -0.116314 6.56404 -0.116312 6.48424 -0.115028L5.47397 -0.105787L4.84808 0.672371C-0.082635 6.80194 -1.26979 13.9722 1.67153 19.8536C4.04818 24.606 8.77847 27.7898 14.7168 28.7904C14.0703 27.8865 13.4852 26.9551 12.9731 26.0071C12.5631 25.2476 12.2005 24.4818 11.8838 23.7111C8.9912 22.5338 6.73805 20.5869 5.45932 18.0309C3.37153 13.8565 4.15965 8.68627 7.54579 4.03808C9.8327 4.12457 11.9388 4.57499 13.7809 5.33981C14.2257 5.5246 14.6543 5.72787 15.0669 5.94884C15.4845 6.17239 15.8865 6.4121 16.2687 6.67208C15.6701 7.44434 15.1449 8.27409 14.7022 9.15979C12.3247 13.9127 12.6458 19.5082 15.4589 24.7156C16.1261 25.9514 16.9331 27.1656 17.8785 28.3403L18.5046 29.1184L19.3032 29.1264L20.0919 29.1184L20.7177 28.3403C21.6631 27.1656 22.4701 25.9514 23.1373 24.7156C25.9504 19.5082 26.2715 13.9127 23.8946 9.15979C23.451 8.27409 22.9256 7.44434 22.3272 6.67208C22.7095 6.4121 23.1114 6.17239 23.529 5.94884C23.9419 5.72787 24.3705 5.5246 24.8153 5.33981C26.6574 4.57499 28.7635 4.12457 31.0504 4.03808C34.4366 8.68627 35.2247 13.8565 33.1369 18.0306C31.8579 20.5866 29.6048 22.5338 26.7124 23.7108C26.396 24.4818 26.0331 25.2476 25.6231 26.0068C25.111 26.9551 24.5262 27.8857 23.8794 28.7904C29.8177 27.7895 34.5472 24.606 36.9247 19.8536C39.8663 13.9722 38.6786 6.80194 33.7484 0.672371L33.122 -0.105787L32.1117 -0.115028C32.0322 -0.116312 31.9518 -0.116314 31.872 -0.116314C26.9452 -0.116314 22.5829 1.25163 19.2982 3.70726ZM18.49 10.9823C18.726 10.5098 18.9973 10.0591 19.2982 9.62946C19.5984 10.0591 19.87 10.5098 20.1062 10.9823C21.8983 14.5659 21.5694 18.8832 19.2982 22.9747C17.0268 18.8837 16.6976 14.5659 18.49 10.9823Z" fill="url(#paint9_linear_1_1413)"/>
</g>
</g>
<defs>
<linearGradient id="paint0_linear_1_1413" x1="84.7911" y1="14.505" x2="167.205" y2="14.505" gradientUnits="userSpaceOnUse">
<stop stop-color="#37325A"/>
<stop offset="1" stop-color="#E73547"/>
</linearGradient>
<linearGradient id="paint1_linear_1_1413" x1="84.7909" y1="14.3899" x2="167.206" y2="14.3899" gradientUnits="userSpaceOnUse">
<stop stop-color="#37325A"/>
<stop offset="1" stop-color="#E73547"/>
</linearGradient>
<linearGradient id="paint2_linear_1_1413" x1="84.7904" y1="14.6198" x2="167.203" y2="14.6198" gradientUnits="userSpaceOnUse">
<stop stop-color="#37325A"/>
<stop offset="1" stop-color="#E73547"/>
</linearGradient>
<linearGradient id="paint3_linear_1_1413" x1="84.7911" y1="14.5047" x2="167.203" y2="14.5047" gradientUnits="userSpaceOnUse">
<stop stop-color="#37325A"/>
<stop offset="1" stop-color="#E73547"/>
</linearGradient>
<linearGradient id="paint4_linear_1_1413" x1="84.7907" y1="14.505" x2="167.204" y2="14.505" gradientUnits="userSpaceOnUse">
<stop stop-color="#37325A"/>
<stop offset="1" stop-color="#E73547"/>
</linearGradient>
<linearGradient id="paint5_linear_1_1413" x1="84.7907" y1="14.5047" x2="167.204" y2="14.5047" gradientUnits="userSpaceOnUse">
<stop stop-color="#37325A"/>
<stop offset="1" stop-color="#E73547"/>
</linearGradient>
<linearGradient id="paint6_linear_1_1413" x1="84.7893" y1="14.5047" x2="167.204" y2="14.5047" gradientUnits="userSpaceOnUse">
<stop stop-color="#37325A"/>
<stop offset="1" stop-color="#E73547"/>
</linearGradient>
<linearGradient id="paint7_linear_1_1413" x1="84.7925" y1="14.6198" x2="167.205" y2="14.6198" gradientUnits="userSpaceOnUse">
<stop stop-color="#37325A"/>
<stop offset="1" stop-color="#E73547"/>
</linearGradient>
<linearGradient id="paint8_linear_1_1413" x1="84.7897" y1="14.5047" x2="167.204" y2="14.5047" gradientUnits="userSpaceOnUse">
<stop stop-color="#37325A"/>
<stop offset="1" stop-color="#E73547"/>
</linearGradient>
<linearGradient id="paint9_linear_1_1413" x1="7.36857" y1="25.8439" x2="29.7745" y2="-0.394967" gradientUnits="userSpaceOnUse">
<stop stop-color="#37325A"/>
<stop offset="1" stop-color="#E73547"/>
</linearGradient>
<clipPath id="clip0_1_1413">
<rect width="183" height="29" fill="white"/>
</clipPath>
</defs>
</svg>
